<svg width="110" height="70" viewBox="0 0 110 70" fill="none" xmlns="http://www.w3.org/2000/svg">
<path d="M1.81818 24V0.727272H9.95454C11.5758 0.727272 12.9129 1.00758 13.9659 1.56818C15.0189 2.12121 15.803 2.86742 16.3182 3.80682C16.8333 4.73864 17.0909 5.77273 17.0909 6.90909C17.0909 7.90909 16.9129 8.73485 16.5568 9.38636C16.2083 10.0379 15.7462 10.553 15.1705 10.9318C14.6023 11.3106 13.9848 11.5909 13.3182 11.7727V12C14.0303 12.0455 14.7462 12.2955 15.4659 12.75C16.1856 13.2045 16.7879 13.8561 17.2727 14.7045C17.7576 15.553 18 16.5909 18 17.8182C18 18.9848 17.7348 20.0341 17.2045 20.9659C16.6742 21.8977 15.8371 22.6364 14.6932 23.1818C13.5492 23.7273 12.0606 24 10.2273 24H1.81818ZM4.63636 21.5H10.2273C12.0682 21.5 13.375 21.1439 14.1477 20.4318C14.928 19.7121 15.3182 18.8409 15.3182 17.8182C15.3182 17.0303 15.1174 16.303 14.7159 15.6364C14.3144 14.9621 13.7424 14.4242 13 14.0227C12.2576 13.6136 11.3788 13.4091 10.3636 13.4091H4.63636V21.5ZM4.63636 10.9545H9.86363C10.7121 10.9545 11.4773 10.7879 12.1591 10.4545C12.8485 10.1212 13.3939 9.65151 13.7954 9.04545C14.2045 8.43939 14.4091 7.72727 14.4091 6.90909C14.4091 5.88636 14.053 5.01894 13.3409 4.30682C12.6288 3.58712 11.5 3.22727 9.95454 3.22727H4.63636V10.9545Z" fill="white"/>
<path d="M22.267 24V6.54545H24.9489V24H22.267ZM23.6307 3.63636C23.1079 3.63636 22.6572 3.45833 22.2784 3.10227C21.9072 2.74621 21.7216 2.31818 21.7216 1.81818C21.7216 1.31818 21.9072 0.890151 22.2784 0.53409C22.6572 0.17803 23.1079 0 23.6307 0C24.1534 0 24.6004 0.17803 24.9716 0.53409C25.3504 0.890151 25.5398 1.31818 25.5398 1.81818C25.5398 2.31818 25.3504 2.74621 24.9716 3.10227C24.6004 3.45833 24.1534 3.63636 23.6307 3.63636Z" fill="white"/>
<path d="M36.9517 24.3636C35.3153 24.3636 33.9062 23.9773 32.7244 23.2045C31.5426 22.4318 30.6335 21.3674 29.9972 20.0114C29.3608 18.6553 29.0426 17.1061 29.0426 15.3636C29.0426 13.5909 29.3684 12.0265 30.0199 10.6705C30.679 9.30682 31.5956 8.24242 32.7699 7.47727C33.9517 6.70455 35.3305 6.31818 36.9062 6.31818C38.1335 6.31818 39.2396 6.54545 40.2244 7C41.2093 7.45455 42.0161 8.09091 42.6449 8.90909C43.2737 9.72727 43.6638 10.6818 43.8153 11.7727H41.1335C40.929 10.9773 40.4744 10.2727 39.7699 9.65909C39.0729 9.03788 38.1335 8.72727 36.9517 8.72727C35.9062 8.72727 34.9896 9 34.2017 9.54545C33.4214 10.0833 32.8115 10.8447 32.3722 11.8295C31.9403 12.8068 31.7244 13.9545 31.7244 15.2727C31.7244 16.6212 31.9365 17.7955 32.3608 18.7955C32.7926 19.7955 33.3987 20.572 34.179 21.125C34.9669 21.678 35.8911 21.9545 36.9517 21.9545C37.6487 21.9545 38.2812 21.8333 38.8494 21.5909C39.4176 21.3485 39.8987 21 40.2926 20.5455C40.6865 20.0909 40.9669 19.5455 41.1335 18.9091H43.8153C43.6638 19.9394 43.2888 20.8674 42.6903 21.6932C42.0994 22.5114 41.3153 23.1629 40.3381 23.6477C39.3684 24.125 38.2396 24.3636 36.9517 24.3636Z" fill="white"/>
<path d="M49.4631 30.5455C49.0085 30.5455 48.6032 30.5076 48.2472 30.4318C47.8911 30.3636 47.6449 30.2955 47.5085 30.2273L48.1903 27.8636C48.8419 28.0303 49.4176 28.0909 49.9176 28.0455C50.4176 28 50.8608 27.7765 51.2472 27.375C51.6411 26.9811 52.0009 26.3409 52.3267 25.4545L52.8267 24.0909L46.3722 6.54545H49.2812L54.0994 20.4545H54.2812L59.0994 6.54545H62.0085L54.5994 26.5455C54.2661 27.447 53.8532 28.1932 53.3608 28.7841C52.8684 29.3826 52.2964 29.8258 51.6449 30.1136C51.0009 30.4015 50.2737 30.5455 49.4631 30.5455Z" fill="white"/>
<path d="M72.0142 24.3636C70.3778 24.3636 68.9687 23.9773 67.7869 23.2045C66.6051 22.4318 65.696 21.3674 65.0597 20.0114C64.4233 18.6553 64.1051 17.1061 64.1051 15.3636C64.1051 13.5909 64.4309 12.0265 65.0824 10.6705C65.7415 9.30682 66.6581 8.24242 67.8324 7.47727C69.0142 6.70455 70.393 6.31818 71.9687 6.31818C73.196 6.31818 74.3021 6.54545 75.2869 7C76.2718 7.45455 77.0786 8.09091 77.7074 8.90909C78.3362 9.72727 78.7263 10.6818 78.8778 11.7727H76.196C75.9915 10.9773 75.5369 10.2727 74.8324 9.65909C74.1354 9.03788 73.196 8.72727 72.0142 8.72727C70.9687 8.72727 70.0521 9 69.2642 9.54545C68.4839 10.0833 67.874 10.8447 67.4347 11.8295C67.0028 12.8068 66.7869 13.9545 66.7869 15.2727C66.7869 16.6212 66.999 17.7955 67.4233 18.7955C67.8551 19.7955 68.4612 20.572 69.2415 21.125C70.0293 21.678 70.9536 21.9545 72.0142 21.9545C72.7112 21.9545 73.3437 21.8333 73.9119 21.5909C74.4801 21.3485 74.9612 21 75.3551 20.5455C75.749 20.0909 76.0293 19.5455 76.196 18.9091H78.8778C78.7263 19.9394 78.3513 20.8674 77.7528 21.6932C77.1619 22.5114 76.3778 23.1629 75.4006 23.6477C74.4309 24.125 73.3021 24.3636 72.0142 24.3636Z" fill="white"/>
<path d="M85.4801 0.727272V24H82.7983V0.727272H85.4801Z" fill="white"/>
<path d="M97.7102 24.3636C96.0284 24.3636 94.5776 23.9924 93.3579 23.25C92.1458 22.5 91.2102 21.4545 90.5511 20.1136C89.8996 18.7652 89.5739 17.197 89.5739 15.4091C89.5739 13.6212 89.8996 12.0455 90.5511 10.6818C91.2102 9.31061 92.1269 8.24242 93.3011 7.47727C94.483 6.70455 95.8617 6.31818 97.4375 6.31818C98.3466 6.31818 99.2443 6.4697 100.131 6.77273C101.017 7.07576 101.824 7.56818 102.551 8.25C103.278 8.92424 103.858 9.81818 104.29 10.9318C104.722 12.0455 104.937 13.4167 104.937 15.0455V16.1818H91.4829V13.8636H102.21C102.21 12.8788 102.013 12 101.619 11.2273C101.233 10.4545 100.68 9.8447 99.9602 9.39773C99.2481 8.95076 98.4072 8.72727 97.4375 8.72727C96.3693 8.72727 95.4451 8.99242 94.6648 9.52273C93.892 10.0455 93.2973 10.7273 92.8807 11.5682C92.464 12.4091 92.2557 13.3106 92.2557 14.2727V15.8182C92.2557 17.1364 92.4829 18.2538 92.9375 19.1705C93.3996 20.0795 94.0398 20.7727 94.8579 21.25C95.6761 21.7197 96.6269 21.9545 97.7102 21.9545C98.4148 21.9545 99.0511 21.8561 99.6193 21.6591C100.195 21.4545 100.691 21.1515 101.108 20.75C101.525 20.3409 101.847 19.8333 102.074 19.2273L104.665 19.9545C104.392 20.8333 103.934 21.6061 103.29 22.2727C102.646 22.9318 101.85 23.447 100.903 23.8182C99.9564 24.1818 98.892 24.3636 97.7102 24.3636Z" fill="white"/>
<path d="M14.5454 45.5455C14.4091 44.3939 13.8561 43.5 12.8864 42.8636C11.9167 42.2273 10.7273 41.9091 9.31818 41.9091C8.28787 41.9091 7.38636 42.0758 6.61363 42.4091C5.84848 42.7424 5.24999 43.2008 4.81818 43.7841C4.39393 44.3674 4.18181 45.0303 4.18181 45.7727C4.18181 46.3939 4.32954 46.928 4.62499 47.375C4.92802 47.8144 5.31439 48.1818 5.78409 48.4773C6.25378 48.7652 6.74621 49.0038 7.26136 49.1932C7.77651 49.375 8.24999 49.5227 8.68181 49.6364L11.0454 50.2727C11.6515 50.4318 12.3258 50.6515 13.0682 50.9318C13.8182 51.2121 14.5341 51.5947 15.2159 52.0795C15.9053 52.5568 16.4735 53.1705 16.9205 53.9205C17.3674 54.6705 17.5909 55.5909 17.5909 56.6818C17.5909 57.9394 17.2614 59.0758 16.6023 60.0909C15.9508 61.1061 14.9962 61.9129 13.7386 62.5114C12.4886 63.1098 10.9697 63.4091 9.18181 63.4091C7.51515 63.4091 6.07196 63.1402 4.85227 62.6023C3.64015 62.0644 2.6856 61.3144 1.98863 60.3523C1.29924 59.3902 0.909085 58.2727 0.818176 57H3.72727C3.80302 57.8788 4.09848 58.6061 4.61363 59.1818C5.13636 59.75 5.79545 60.1742 6.5909 60.4545C7.39393 60.7273 8.25757 60.8636 9.18181 60.8636C10.2576 60.8636 11.2235 60.6894 12.0795 60.3409C12.9356 59.9849 13.6136 59.4924 14.1136 58.8636C14.6136 58.2273 14.8636 57.4848 14.8636 56.6364C14.8636 55.8636 14.6477 55.2348 14.2159 54.75C13.7841 54.2652 13.2159 53.8712 12.5114 53.5682C11.8068 53.2652 11.0454 53 10.2273 52.7727L7.36363 51.9545C5.54545 51.4318 4.10606 50.6856 3.04545 49.7159C1.98484 48.7462 1.45454 47.4773 1.45454 45.9091C1.45454 44.6061 1.80681 43.4697 2.51136 42.5C3.22348 41.5227 4.17802 40.7652 5.37499 40.2273C6.57954 39.6818 7.92424 39.4091 9.40909 39.4091C10.9091 39.4091 12.2424 39.678 13.4091 40.2159C14.5758 40.7462 15.5 41.4735 16.1818 42.3977C16.8712 43.322 17.2348 44.3712 17.2727 45.5455H14.5454Z" fill="white"/>
<path d="M23.5881 69.5455C23.1335 69.5455 22.7282 69.5076 22.3722 69.4318C22.0161 69.3636 21.7699 69.2955 21.6335 69.2273L22.3153 66.8636C22.9669 67.0303 23.5426 67.0909 24.0426 67.0455C24.5426 67 24.9858 66.7765 25.3722 66.375C25.7661 65.9811 26.1259 65.3409 26.4517 64.4545L26.9517 63.0909L20.4972 45.5455H23.4062L28.2244 59.4545H28.4062L33.2244 45.5455H36.1335L28.7244 65.5455C28.3911 66.447 27.9782 67.1932 27.4858 67.7841C26.9934 68.3826 26.4214 68.8258 25.7699 69.1136C25.1259 69.4015 24.3987 69.5455 23.5881 69.5455Z" fill="white"/>
<path d="M52.0369 49.4545L49.6278 50.1364C49.4763 49.7348 49.2528 49.3447 48.9574 48.9659C48.6695 48.5795 48.2756 48.2614 47.7756 48.0114C47.2756 47.7614 46.6354 47.6364 45.8551 47.6364C44.7869 47.6364 43.8968 47.8826 43.1847 48.375C42.4801 48.8598 42.1278 49.4773 42.1278 50.2273C42.1278 50.8939 42.3703 51.4205 42.8551 51.8068C43.34 52.1932 44.0975 52.5152 45.1278 52.7727L47.7187 53.4091C49.2794 53.7879 50.4422 54.3674 51.2074 55.1477C51.9725 55.9205 52.3551 56.9167 52.3551 58.1364C52.3551 59.1364 52.0672 60.0303 51.4915 60.8182C50.9233 61.6061 50.1278 62.2273 49.1051 62.6818C48.0824 63.1364 46.893 63.3636 45.5369 63.3636C43.7566 63.3636 42.2831 62.9773 41.1165 62.2045C39.9498 61.4318 39.2112 60.303 38.9006 58.8182L41.446 58.1818C41.6884 59.1212 42.1468 59.8258 42.821 60.2955C43.5028 60.7652 44.393 61 45.4915 61C46.7415 61 47.7339 60.7348 48.4687 60.2045C49.2112 59.6667 49.5824 59.0227 49.5824 58.2727C49.5824 57.6667 49.3703 57.1591 48.946 56.75C48.5218 56.3333 47.8703 56.0227 46.9915 55.8182L44.0824 55.1364C42.4839 54.7576 41.3097 54.1705 40.5597 53.375C39.8172 52.572 39.446 51.5682 39.446 50.3636C39.446 49.3788 39.7225 48.5076 40.2756 47.75C40.8362 46.9924 41.5975 46.3977 42.5597 45.9659C43.5294 45.5341 44.6278 45.3182 45.8551 45.3182C47.5824 45.3182 48.9384 45.697 49.9233 46.4545C50.9157 47.2121 51.6203 48.2121 52.0369 49.4545Z" fill="white"/>
<path d="M63.983 45.5455V47.8182H54.9375V45.5455H63.983ZM57.5739 41.3636H60.2557V58C60.2557 58.7576 60.3655 59.3258 60.5852 59.7045C60.8125 60.0758 61.1004 60.3258 61.4489 60.4545C61.8049 60.5758 62.1799 60.6364 62.5739 60.6364C62.8693 60.6364 63.1117 60.6212 63.3011 60.5909C63.4905 60.553 63.642 60.5227 63.7557 60.5L64.3011 62.9091C64.1193 62.9773 63.8655 63.0455 63.5398 63.1136C63.214 63.1894 62.8011 63.2273 62.3011 63.2273C61.5436 63.2273 60.8011 63.0644 60.0739 62.7386C59.3542 62.4129 58.7557 61.9167 58.2784 61.25C57.8087 60.5833 57.5739 59.7424 57.5739 58.7273V41.3636Z" fill="white"/>
<path d="M75.1477 63.3636C73.4659 63.3636 72.0151 62.9924 70.7954 62.25C69.5833 61.5 68.6477 60.4545 67.9886 59.1136C67.3371 57.7652 67.0114 56.197 67.0114 54.4091C67.0114 52.6212 67.3371 51.0455 67.9886 49.6818C68.6477 48.3106 69.5644 47.2424 70.7386 46.4773C71.9205 45.7045 73.2992 45.3182 74.875 45.3182C75.7841 45.3182 76.6818 45.4697 77.5682 45.7727C78.4545 46.0758 79.2614 46.5682 79.9886 47.25C80.7159 47.9242 81.2954 48.8182 81.7273 49.9318C82.1591 51.0455 82.375 52.4167 82.375 54.0455V55.1818H68.9204V52.8636H79.6477C79.6477 51.8788 79.4507 51 79.0568 50.2273C78.6704 49.4545 78.1174 48.8447 77.3977 48.3977C76.6856 47.9508 75.8447 47.7273 74.875 47.7273C73.8068 47.7273 72.8826 47.9924 72.1023 48.5227C71.3295 49.0455 70.7348 49.7273 70.3182 50.5682C69.9015 51.4091 69.6932 52.3106 69.6932 53.2727V54.8182C69.6932 56.1364 69.9204 57.2538 70.375 58.1705C70.8371 59.0795 71.4773 59.7727 72.2954 60.25C73.1136 60.7197 74.0644 60.9545 75.1477 60.9545C75.8523 60.9545 76.4886 60.8561 77.0568 60.6591C77.6326 60.4545 78.1288 60.1515 78.5454 59.75C78.9621 59.3409 79.2841 58.8333 79.5114 58.2273L82.1023 58.9545C81.8295 59.8333 81.3712 60.6061 80.7273 61.2727C80.0833 61.9318 79.2879 62.447 78.3409 62.8182C77.3939 63.1818 76.3295 63.3636 75.1477 63.3636Z" fill="white"/>
<path d="M86.4545 63V45.5455H89.0454V48.2727H89.2727C89.6364 47.3409 90.2235 46.6174 91.0341 46.1023C91.8447 45.5795 92.8182 45.3182 93.9545 45.3182C95.1061 45.3182 96.0644 45.5795 96.8295 46.1023C97.6023 46.6174 98.2045 47.3409 98.6364 48.2727H98.8182C99.2651 47.3712 99.9356 46.6553 100.83 46.125C101.723 45.5871 102.795 45.3182 104.045 45.3182C105.606 45.3182 106.883 45.8068 107.875 46.7841C108.867 47.7538 109.364 49.2652 109.364 51.3182V63H106.682V51.3182C106.682 50.0303 106.33 49.1098 105.625 48.5568C104.92 48.0038 104.091 47.7273 103.136 47.7273C101.909 47.7273 100.958 48.0985 100.284 48.8409C99.6098 49.5758 99.2727 50.5076 99.2727 51.6364V63H96.5454V51.0455C96.5454 50.053 96.2235 49.2538 95.5795 48.6477C94.9356 48.0341 94.1061 47.7273 93.0909 47.7273C92.3939 47.7273 91.7424 47.9129 91.1364 48.2841C90.5379 48.6553 90.053 49.1705 89.6818 49.8295C89.3182 50.4811 89.1364 51.2348 89.1364 52.0909V63H86.4545Z" fill="white"/>
</svg>
