<svg width="38" height="25" viewBox="0 0 38 25" fill="none" xmlns="http://www.w3.org/2000/svg">
<path d="M0.818184 24V0.727301H8.95455C10.5758 0.727301 11.9129 1.0076 12.9659 1.56821C14.0189 2.12124 14.803 2.86745 15.3182 3.80685C15.8333 4.73866 16.0909 5.77275 16.0909 6.90912C16.0909 7.90912 15.9129 8.73488 15.5568 9.38639C15.2083 10.0379 14.7462 10.5531 14.1705 10.9318C13.6023 11.3106 12.9849 11.5909 12.3182 11.7728V12C13.0303 12.0455 13.7462 12.2955 14.4659 12.75C15.1856 13.2046 15.7879 13.8561 16.2727 14.7046C16.7576 15.5531 17 16.5909 17 17.8182C17 18.9849 16.7349 20.0341 16.2045 20.9659C15.6742 21.8978 14.8371 22.6364 13.6932 23.1818C12.5492 23.7273 11.0606 24 9.22727 24H0.818184ZM3.63637 21.5H9.22727C11.0682 21.5 12.375 21.144 13.1477 20.4318C13.928 19.7121 14.3182 18.8409 14.3182 17.8182C14.3182 17.0303 14.1174 16.3031 13.7159 15.6364C13.3144 14.9622 12.7424 14.4243 12 14.0228C11.2576 13.6137 10.3788 13.4091 9.36364 13.4091H3.63637V21.5ZM3.63637 10.9546H8.86364C9.71212 10.9546 10.4773 10.7879 11.1591 10.4546C11.8485 10.1212 12.3939 9.65154 12.7955 9.04548C13.2045 8.43942 13.4091 7.7273 13.4091 6.90912C13.4091 5.88639 13.053 5.01897 12.3409 4.30685C11.6288 3.58715 10.5 3.2273 8.95455 3.2273H3.63637V10.9546Z" fill="white"/>
<path d="M34.358 6.54548C34.2216 5.39397 33.6686 4.50003 32.6989 3.86366C31.7292 3.2273 30.5398 2.90912 29.1307 2.90912C28.1004 2.90912 27.1989 3.07579 26.4261 3.40912C25.661 3.74245 25.0625 4.20079 24.6307 4.78412C24.2064 5.36745 23.9943 6.03033 23.9943 6.77275C23.9943 7.39397 24.142 7.92806 24.4375 8.37503C24.7405 8.81442 25.1269 9.18185 25.5966 9.4773C26.0663 9.76518 26.5587 10.0038 27.0739 10.1932C27.589 10.375 28.0625 10.5228 28.4943 10.6364L30.858 11.2728C31.464 11.4318 32.1383 11.6515 32.8807 11.9318C33.6307 12.2121 34.3466 12.5947 35.0284 13.0796C35.7178 13.5568 36.286 14.1705 36.733 14.9205C37.1799 15.6705 37.4034 16.5909 37.4034 17.6818C37.4034 18.9394 37.0739 20.0758 36.4148 21.0909C35.7633 22.1061 34.8087 22.9129 33.5511 23.5114C32.3011 24.1099 30.7822 24.4091 28.9943 24.4091C27.3277 24.4091 25.8845 24.1402 24.6648 23.6023C23.4527 23.0644 22.4981 22.3144 21.8011 21.3523C21.1117 20.3902 20.7216 19.2728 20.6307 18H23.5398C23.6155 18.8788 23.911 19.6061 24.4261 20.1818C24.9489 20.75 25.608 21.1743 26.4034 21.4546C27.2064 21.7273 28.0701 21.8637 28.9943 21.8637C30.0701 21.8637 31.036 21.6894 31.892 21.3409C32.7481 20.9849 33.4261 20.4925 33.9261 19.8637C34.4261 19.2273 34.6761 18.4849 34.6761 17.6364C34.6761 16.8637 34.4602 16.2349 34.0284 15.75C33.5966 15.2652 33.0284 14.8712 32.3239 14.5682C31.6193 14.2652 30.858 14 30.0398 13.7728L27.1761 12.9546C25.358 12.4318 23.9186 11.6856 22.858 10.7159C21.7973 9.74624 21.267 8.4773 21.267 6.90912C21.267 5.60609 21.6193 4.46972 22.3239 3.50003C23.036 2.52276 23.9905 1.76518 25.1875 1.2273C26.392 0.681846 27.7367 0.409119 29.2216 0.409119C30.7216 0.409119 32.0549 0.678058 33.2216 1.21594C34.3883 1.74624 35.3125 2.47351 35.9943 3.39775C36.6837 4.322 37.0473 5.37124 37.0852 6.54548H34.358Z" fill="white"/>
</svg>
